<svg id="visual" viewBox="0 0 900 600" width="900" height="600" xmlns="http://www.w3.org/2000/svg" xmlns:xlink="http://www.w3.org/1999/xlink" version="1.1"><rect x="0" y="0" width="900" height="600" fill="#001220"></rect><path d="M0 384L21.5 392.5C43 401 86 418 128.8 414.3C171.7 410.7 214.3 386.3 257.2 376.7C300 367 343 372 385.8 378.3C428.7 384.7 471.3 392.3 514.2 404C557 415.7 600 431.3 642.8 426.8C685.7 422.3 728.3 397.7 771.2 392.8C814 388 857 403 878.5 410.5L900 418L900 601L878.5 601C857 601 814 601 771.2 601C728.3 601 685.7 601 642.8 601C600 601 557 601 514.2 601C471.3 601 428.7 601 385.8 601C343 601 300 601 257.2 601C214.3 601 171.7 601 128.8 601C86 601 43 601 21.5 601L0 601Z" fill="#fa7268"></path><path d="M0 415L21.5 422.8C43 430.7 86 446.3 128.8 448.5C171.7 450.7 214.3 439.3 257.2 429.5C300 419.7 343 411.3 385.8 407.3C428.7 403.3 471.3 403.7 514.2 408.2C557 412.7 600 421.3 642.8 434C685.7 446.7 728.3 463.3 771.2 463.2C814 463 857 446 878.5 437.5L900 429L900 601L878.5 601C857 601 814 601 771.2 601C728.3 601 685.7 601 642.8 601C600 601 557 601 514.2 601C471.3 601 428.7 601 385.8 601C343 601 300 601 257.2 601C214.3 601 171.7 601 128.8 601C86 601 43 601 21.5 601L0 601Z" fill="#ef5f67"></path><path d="M0 464L21.5 460.7C43 457.3 86 450.7 128.8 455.5C171.7 460.3 214.3 476.7 257.2 481C300 485.3 343 477.7 385.8 474.7C428.7 471.7 471.3 473.3 514.2 475C557 476.7 600 478.3 642.8 483.8C685.7 489.3 728.3 498.7 771.2 500.5C814 502.3 857 496.7 878.5 493.8L900 491L900 601L878.5 601C857 601 814 601 771.2 601C728.3 601 685.7 601 642.8 601C600 601 557 601 514.2 601C471.3 601 428.7 601 385.8 601C343 601 300 601 257.2 601C214.3 601 171.7 601 128.8 601C86 601 43 601 21.5 601L0 601Z" fill="#e34c67"></path><path d="M0 502L21.5 506.2C43 510.3 86 518.7 128.8 524C171.7 529.3 214.3 531.7 257.2 531.7C300 531.7 343 529.3 385.8 524.5C428.7 519.7 471.3 512.3 514.2 510.7C557 509 600 513 642.8 517.8C685.7 522.7 728.3 528.3 771.2 528.8C814 529.3 857 524.7 878.5 522.3L900 520L900 601L878.5 601C857 601 814 601 771.2 601C728.3 601 685.7 601 642.8 601C600 601 557 601 514.2 601C471.3 601 428.7 601 385.8 601C343 601 300 601 257.2 601C214.3 601 171.7 601 128.8 601C86 601 43 601 21.5 601L0 601Z" fill="#d53867"></path><path d="M0 559L21.5 560.3C43 561.7 86 564.3 128.8 558.7C171.7 553 214.3 539 257.2 540C300 541 343 557 385.8 562.3C428.7 567.7 471.3 562.3 514.2 561.7C557 561 600 565 642.8 564.5C685.7 564 728.3 559 771.2 555.7C814 552.3 857 550.7 878.5 549.8L900 549L900 601L878.5 601C857 601 814 601 771.2 601C728.3 601 685.7 601 642.8 601C600 601 557 601 514.2 601C471.3 601 428.7 601 385.8 601C343 601 300 601 257.2 601C214.3 601 171.7 601 128.8 601C86 601 43 601 21.5 601L0 601Z" fill="#c62368"></path></svg>